<mxfile host="app.diagrams.net" agent="Mozilla/5.0 (X11; Ubuntu; Linux x86_64; rv:132.0) Gecko/20100101 Firefox/132.0" version="24.8.4">
  <diagram name="Page-1" id="kAHeXbk0XRPaJV0VDnAC">
    <mxGraphModel dx="1434" dy="776" grid="1" gridSize="10" guides="1" tooltips="1" connect="1" arrows="1" fold="1" page="1" pageScale="1" pageWidth="850" pageHeight="1100" math="0" shadow="0">
      <root>
        <mxCell id="0" />
        <mxCell id="1" parent="0" />
        <mxCell id="2pnpTwt-PdoqCdJgxdSJ-2" value="Proces 3" style="rounded=1;whiteSpace=wrap;html=1;fillColor=none;fontColor=#a51d2d;strokeColor=#a51d2d;" parent="1" vertex="1">
          <mxGeometry x="340" y="406" width="80" height="30" as="geometry" />
        </mxCell>
        <mxCell id="2pnpTwt-PdoqCdJgxdSJ-4" value="Proces 2" style="rounded=1;whiteSpace=wrap;html=1;fillColor=none;fontColor=#a51d2d;strokeColor=#a51d2d;" parent="1" vertex="1">
          <mxGeometry x="340" y="439" width="80" height="30" as="geometry" />
        </mxCell>
        <mxCell id="2pnpTwt-PdoqCdJgxdSJ-6" value="Proces 1" style="rounded=1;whiteSpace=wrap;html=1;fillColor=none;fontColor=#a51d2d;strokeColor=#a51d2d;" parent="1" vertex="1">
          <mxGeometry x="340" y="472" width="80" height="30" as="geometry" />
        </mxCell>
        <mxCell id="2pnpTwt-PdoqCdJgxdSJ-8" value="..." style="text;html=1;align=center;verticalAlign=middle;resizable=0;points=[];autosize=1;strokeColor=none;fillColor=none;fontColor=#a51d2d;" parent="1" vertex="1">
          <mxGeometry x="365" y="376" width="30" height="30" as="geometry" />
        </mxCell>
        <mxCell id="2pnpTwt-PdoqCdJgxdSJ-9" value="&lt;div&gt;Jedn. obliczeniowa&lt;/div&gt;&lt;div&gt;nr 1&lt;/div&gt;" style="ellipse;whiteSpace=wrap;html=1;fillColor=none;" parent="1" vertex="1">
          <mxGeometry x="320" y="560" width="120" height="80" as="geometry" />
        </mxCell>
        <mxCell id="2pnpTwt-PdoqCdJgxdSJ-10" value="&lt;div&gt;Jedn. obliczeniowa&lt;/div&gt;&lt;div&gt;nr 2&lt;br&gt;&lt;/div&gt;" style="ellipse;whiteSpace=wrap;html=1;fillColor=none;" parent="1" vertex="1">
          <mxGeometry x="475" y="560" width="120" height="80" as="geometry" />
        </mxCell>
        <mxCell id="2pnpTwt-PdoqCdJgxdSJ-11" value="&lt;div&gt;Jedn. obliczeniowa&lt;/div&gt;&lt;div&gt;nr n&lt;br&gt;&lt;/div&gt;" style="ellipse;whiteSpace=wrap;html=1;fillColor=none;" parent="1" vertex="1">
          <mxGeometry x="627" y="560" width="120" height="80" as="geometry" />
        </mxCell>
        <mxCell id="2pnpTwt-PdoqCdJgxdSJ-12" value="..." style="text;html=1;align=center;verticalAlign=middle;resizable=0;points=[];autosize=1;strokeColor=none;fillColor=none;" parent="1" vertex="1">
          <mxGeometry x="597" y="585" width="30" height="30" as="geometry" />
        </mxCell>
        <mxCell id="2pnpTwt-PdoqCdJgxdSJ-29" value="Proces 3" style="rounded=1;whiteSpace=wrap;html=1;fillColor=none;fontColor=#a51d2d;strokeColor=#a51d2d;" parent="1" vertex="1">
          <mxGeometry x="495" y="406" width="80" height="30" as="geometry" />
        </mxCell>
        <mxCell id="2pnpTwt-PdoqCdJgxdSJ-30" value="Proces 2" style="rounded=1;whiteSpace=wrap;html=1;fillColor=none;fontColor=#a51d2d;strokeColor=#a51d2d;" parent="1" vertex="1">
          <mxGeometry x="495" y="439" width="80" height="30" as="geometry" />
        </mxCell>
        <mxCell id="2pnpTwt-PdoqCdJgxdSJ-31" value="Proces 1" style="rounded=1;whiteSpace=wrap;html=1;fillColor=none;fontColor=#a51d2d;strokeColor=#a51d2d;" parent="1" vertex="1">
          <mxGeometry x="495" y="472" width="80" height="30" as="geometry" />
        </mxCell>
        <mxCell id="2pnpTwt-PdoqCdJgxdSJ-32" value="Proces 3" style="rounded=1;whiteSpace=wrap;html=1;fillColor=none;fontColor=#a51d2d;strokeColor=#a51d2d;" parent="1" vertex="1">
          <mxGeometry x="650" y="406" width="80" height="30" as="geometry" />
        </mxCell>
        <mxCell id="2pnpTwt-PdoqCdJgxdSJ-33" value="Proces 2" style="rounded=1;whiteSpace=wrap;html=1;fillColor=none;fontColor=#a51d2d;strokeColor=#a51d2d;" parent="1" vertex="1">
          <mxGeometry x="650" y="439" width="80" height="30" as="geometry" />
        </mxCell>
        <mxCell id="2pnpTwt-PdoqCdJgxdSJ-34" value="Proces 1" style="rounded=1;whiteSpace=wrap;html=1;fillColor=none;fontColor=#a51d2d;strokeColor=#a51d2d;" parent="1" vertex="1">
          <mxGeometry x="650" y="472" width="80" height="30" as="geometry" />
        </mxCell>
        <mxCell id="2pnpTwt-PdoqCdJgxdSJ-35" value="..." style="text;html=1;align=center;verticalAlign=middle;resizable=0;points=[];autosize=1;strokeColor=none;fillColor=none;fontColor=#a51d2d;" parent="1" vertex="1">
          <mxGeometry x="520" y="376" width="30" height="30" as="geometry" />
        </mxCell>
        <mxCell id="2pnpTwt-PdoqCdJgxdSJ-36" value="..." style="text;html=1;align=center;verticalAlign=middle;resizable=0;points=[];autosize=1;strokeColor=none;fillColor=none;fontColor=#a51d2d;" parent="1" vertex="1">
          <mxGeometry x="675" y="376" width="30" height="30" as="geometry" />
        </mxCell>
        <mxCell id="2pnpTwt-PdoqCdJgxdSJ-37" value="Proces 3" style="rounded=1;whiteSpace=wrap;html=1;fillColor=none;fontColor=#1a5fb4;strokeColor=#1a5fb4;" parent="1" vertex="1">
          <mxGeometry x="495" y="230" width="80" height="30" as="geometry" />
        </mxCell>
        <mxCell id="2pnpTwt-PdoqCdJgxdSJ-38" value="Proces 2" style="rounded=1;whiteSpace=wrap;html=1;fillColor=none;fontColor=#1a5fb4;strokeColor=#1a5fb4;" parent="1" vertex="1">
          <mxGeometry x="495" y="263" width="80" height="30" as="geometry" />
        </mxCell>
        <mxCell id="2pnpTwt-PdoqCdJgxdSJ-39" value="Proces 1" style="rounded=1;whiteSpace=wrap;html=1;fillColor=none;fontColor=#1a5fb4;strokeColor=#1a5fb4;" parent="1" vertex="1">
          <mxGeometry x="495" y="296" width="80" height="30" as="geometry" />
        </mxCell>
        <mxCell id="2pnpTwt-PdoqCdJgxdSJ-40" value="..." style="text;html=1;align=center;verticalAlign=middle;resizable=0;points=[];autosize=1;strokeColor=none;fillColor=none;fontColor=#1a5fb4;" parent="1" vertex="1">
          <mxGeometry x="520" y="200" width="30" height="30" as="geometry" />
        </mxCell>
        <mxCell id="2pnpTwt-PdoqCdJgxdSJ-60" style="edgeStyle=orthogonalEdgeStyle;rounded=0;orthogonalLoop=1;jettySize=auto;html=1;exitX=0.5;exitY=1;exitDx=0;exitDy=0;entryX=0.5;entryY=0;entryDx=0;entryDy=0;strokeColor=#a51d2d;" parent="1" source="2pnpTwt-PdoqCdJgxdSJ-42" target="2pnpTwt-PdoqCdJgxdSJ-9" edge="1">
          <mxGeometry relative="1" as="geometry" />
        </mxCell>
        <mxCell id="2pnpTwt-PdoqCdJgxdSJ-42" value="" style="rounded=1;whiteSpace=wrap;html=1;fillColor=none;fontColor=#a51d2d;strokeColor=#a51d2d;" parent="1" vertex="1">
          <mxGeometry x="330" y="361" width="100" height="149" as="geometry" />
        </mxCell>
        <mxCell id="2pnpTwt-PdoqCdJgxdSJ-43" value="Kolejka 1" style="text;html=1;align=center;verticalAlign=middle;whiteSpace=wrap;rounded=0;fontColor=#a51d2d;" parent="1" vertex="1">
          <mxGeometry x="350" y="361" width="60" height="30" as="geometry" />
        </mxCell>
        <mxCell id="2pnpTwt-PdoqCdJgxdSJ-61" style="edgeStyle=orthogonalEdgeStyle;rounded=0;orthogonalLoop=1;jettySize=auto;html=1;exitX=0.5;exitY=1;exitDx=0;exitDy=0;entryX=0.5;entryY=0;entryDx=0;entryDy=0;strokeColor=#a51d2d;" parent="1" source="2pnpTwt-PdoqCdJgxdSJ-48" target="2pnpTwt-PdoqCdJgxdSJ-10" edge="1">
          <mxGeometry relative="1" as="geometry" />
        </mxCell>
        <mxCell id="2pnpTwt-PdoqCdJgxdSJ-48" value="" style="rounded=1;whiteSpace=wrap;html=1;fillColor=none;fontColor=#a51d2d;strokeColor=#a51d2d;" parent="1" vertex="1">
          <mxGeometry x="485" y="361" width="100" height="149" as="geometry" />
        </mxCell>
        <mxCell id="2pnpTwt-PdoqCdJgxdSJ-49" value="Kolejka 2" style="text;html=1;align=center;verticalAlign=middle;whiteSpace=wrap;rounded=0;fontColor=#a51d2d;" parent="1" vertex="1">
          <mxGeometry x="505" y="361" width="60" height="30" as="geometry" />
        </mxCell>
        <mxCell id="2pnpTwt-PdoqCdJgxdSJ-62" style="edgeStyle=orthogonalEdgeStyle;rounded=0;orthogonalLoop=1;jettySize=auto;html=1;exitX=0.5;exitY=1;exitDx=0;exitDy=0;entryX=0.5;entryY=0;entryDx=0;entryDy=0;strokeColor=#a51d2d;" parent="1" source="2pnpTwt-PdoqCdJgxdSJ-50" target="2pnpTwt-PdoqCdJgxdSJ-11" edge="1">
          <mxGeometry relative="1" as="geometry" />
        </mxCell>
        <mxCell id="2pnpTwt-PdoqCdJgxdSJ-50" value="" style="rounded=1;whiteSpace=wrap;html=1;fillColor=none;fontColor=#a51d2d;strokeColor=#a51d2d;" parent="1" vertex="1">
          <mxGeometry x="637" y="361" width="100" height="149" as="geometry" />
        </mxCell>
        <mxCell id="2pnpTwt-PdoqCdJgxdSJ-51" value="Kolejka n" style="text;html=1;align=center;verticalAlign=middle;whiteSpace=wrap;rounded=0;fontColor=#a51d2d;" parent="1" vertex="1">
          <mxGeometry x="660" y="361" width="60" height="30" as="geometry" />
        </mxCell>
        <mxCell id="2pnpTwt-PdoqCdJgxdSJ-52" value="..." style="text;html=1;align=center;verticalAlign=middle;resizable=0;points=[];autosize=1;strokeColor=none;fillColor=none;fontColor=#a51d2d;" parent="1" vertex="1">
          <mxGeometry x="597" y="420.5" width="30" height="30" as="geometry" />
        </mxCell>
        <mxCell id="2pnpTwt-PdoqCdJgxdSJ-57" style="edgeStyle=orthogonalEdgeStyle;rounded=0;orthogonalLoop=1;jettySize=auto;html=1;exitX=0.5;exitY=1;exitDx=0;exitDy=0;entryX=0.5;entryY=0;entryDx=0;entryDy=0;strokeColor=#1a5fb4;" parent="1" source="2pnpTwt-PdoqCdJgxdSJ-53" target="2pnpTwt-PdoqCdJgxdSJ-49" edge="1">
          <mxGeometry relative="1" as="geometry" />
        </mxCell>
        <mxCell id="2pnpTwt-PdoqCdJgxdSJ-58" style="edgeStyle=orthogonalEdgeStyle;rounded=0;orthogonalLoop=1;jettySize=auto;html=1;exitX=0;exitY=0.75;exitDx=0;exitDy=0;entryX=0.5;entryY=0;entryDx=0;entryDy=0;curved=1;strokeColor=#1a5fb4;" parent="1" source="2pnpTwt-PdoqCdJgxdSJ-53" target="2pnpTwt-PdoqCdJgxdSJ-43" edge="1">
          <mxGeometry relative="1" as="geometry" />
        </mxCell>
        <mxCell id="2pnpTwt-PdoqCdJgxdSJ-59" style="edgeStyle=orthogonalEdgeStyle;rounded=0;orthogonalLoop=1;jettySize=auto;html=1;exitX=1;exitY=0.75;exitDx=0;exitDy=0;entryX=0.5;entryY=0;entryDx=0;entryDy=0;curved=1;strokeColor=#1a5fb4;" parent="1" source="2pnpTwt-PdoqCdJgxdSJ-53" target="2pnpTwt-PdoqCdJgxdSJ-51" edge="1">
          <mxGeometry relative="1" as="geometry" />
        </mxCell>
        <mxCell id="2pnpTwt-PdoqCdJgxdSJ-53" value="" style="rounded=1;whiteSpace=wrap;html=1;fillColor=none;fontColor=#1a5fb4;strokeColor=#1a5fb4;" parent="1" vertex="1">
          <mxGeometry x="485" y="180" width="100" height="159" as="geometry" />
        </mxCell>
        <mxCell id="2pnpTwt-PdoqCdJgxdSJ-54" value="&lt;div&gt;Kolejka&lt;/div&gt;&lt;div&gt;globalna&lt;br&gt;&lt;/div&gt;" style="text;html=1;align=center;verticalAlign=middle;whiteSpace=wrap;rounded=0;fontColor=#1a5fb4;" parent="1" vertex="1">
          <mxGeometry x="505" y="184" width="60" height="30" as="geometry" />
        </mxCell>
        <mxCell id="2pnpTwt-PdoqCdJgxdSJ-63" value="Dynamiczne&lt;br&gt;&lt;div&gt;partycjonowanie&lt;/div&gt;" style="text;html=1;align=center;verticalAlign=middle;resizable=0;points=[];autosize=1;strokeColor=none;fillColor=none;fontColor=#1a5fb4;" parent="1" vertex="1">
          <mxGeometry x="635" y="239.5" width="110" height="40" as="geometry" />
        </mxCell>
        <mxCell id="2pnpTwt-PdoqCdJgxdSJ-64" value="&lt;div&gt;Statyczne&lt;/div&gt;&lt;div&gt;partycjonowanie&lt;br&gt;&lt;/div&gt;" style="text;html=1;align=center;verticalAlign=middle;resizable=0;points=[];autosize=1;strokeColor=none;fillColor=none;fontColor=#a51d2d;" parent="1" vertex="1">
          <mxGeometry x="325" y="239.5" width="110" height="40" as="geometry" />
        </mxCell>
      </root>
    </mxGraphModel>
  </diagram>
</mxfile>
